<?xml version="1.0" encoding="UTF-8"?>
<svg id="Calque_1" data-name="Calque 1" xmlns="http://www.w3.org/2000/svg" viewBox="0 0 245.67 258.3">
  <defs>
    <style>
      .cls-1 {
        fill: none;
        stroke: #000;
        stroke-miterlimit: 10;
        stroke-width: 7px;
      }
    </style>
  </defs>
  <g>
    <path d="M91.79,112.22v31.26h17.64c1.41,0,2.49,.34,3.24,1.03,.75,.68,1.13,1.54,1.13,2.58s-.37,1.91-1.11,2.56c-.74,.65-1.83,.98-3.25,.98h-21.01c-1.89,0-3.26-.42-4.09-1.26-.83-.84-1.25-2.2-1.25-4.07v-33.08c0-1.76,.4-3.08,1.19-3.96s1.83-1.32,3.12-1.32,2.37,.44,3.18,1.3c.81,.87,1.22,2.19,1.22,3.97Z"/>
    <path d="M128.21,143.72h15.29c1.52,0,2.68,.31,3.49,.94,.8,.63,1.2,1.48,1.2,2.55,0,.96-.32,1.77-.95,2.43-.63,.66-1.6,1-2.89,1h-21.56c-1.46,0-2.61-.41-3.43-1.22-.82-.81-1.23-1.76-1.23-2.86,0-.7,.26-1.64,.79-2.8,.53-1.16,1.1-2.08,1.73-2.74,2.6-2.7,4.94-5,7.03-6.93,2.09-1.92,3.58-3.19,4.48-3.79,1.6-1.13,2.93-2.27,4-3.41,1.06-1.14,1.88-2.31,2.43-3.52s.83-2.38,.83-3.53c0-1.25-.3-2.37-.89-3.35-.6-.99-1.41-1.75-2.43-2.3-1.03-.55-2.14-.82-3.35-.82-2.56,0-4.57,1.12-6.04,3.37-.2,.29-.52,1.09-.98,2.4-.46,1.31-.98,2.31-1.55,3.02-.58,.7-1.42,1.05-2.53,1.05-.98,0-1.79-.32-2.43-.97s-.97-1.52-.97-2.64c0-1.35,.3-2.75,.91-4.22,.6-1.46,1.51-2.79,2.71-3.98,1.2-1.19,2.72-2.15,4.57-2.89s4.01-1.1,6.49-1.1c2.99,0,5.54,.47,7.65,1.41,1.37,.63,2.57,1.48,3.6,2.58,1.04,1.09,1.84,2.36,2.42,3.79,.58,1.44,.86,2.93,.86,4.47,0,2.42-.6,4.62-1.8,6.61-1.2,1.98-2.43,3.54-3.68,4.66-1.25,1.12-3.34,2.89-6.28,5.29-2.94,2.4-4.96,4.27-6.05,5.6-.47,.53-.95,1.16-1.44,1.9Z"/>
    <path d="M158.65,115.12c-1.11,0-2.07-.34-2.86-1.03-.79-.68-1.19-1.65-1.19-2.9,0-1.13,.41-2.07,1.22-2.8,.81-.73,1.75-1.1,2.83-1.1s1.95,.33,2.75,1c.8,.66,1.2,1.63,1.2,2.9s-.39,2.19-1.17,2.89c-.78,.69-1.71,1.04-2.78,1.04Zm3.96,8.26v23.12c0,1.6-.38,2.81-1.14,3.63s-1.73,1.23-2.9,1.23-2.12-.42-2.86-1.26-1.1-2.04-1.1-3.6v-22.88c0-1.58,.37-2.77,1.1-3.57,.73-.8,1.68-1.2,2.86-1.2s2.14,.4,2.9,1.2c.76,.8,1.14,1.91,1.14,3.34Z"/>
  </g>
  <path class="cls-1" d="M75.33,69.97h86.77c10.99,0,19.91,8.92,19.91,19.91v86.77c0,6.44-5.23,11.67-11.67,11.67H83.57c-10.99,0-19.91-8.92-19.91-19.91V81.65c0-6.44,5.23-11.67,11.67-11.67Z" transform="translate(127.3 -49.03) rotate(45)"/>
</svg>